<svg xmlns="http://www.w3.org/2000/svg" viewBox="0 0 1400 1000" role="img" aria-labelledby="t d">
<title id="t">BIM coordination visualization</title><desc id="d">Abstract coordinated BIM model with architecture, structure and MEP layers.</desc>
<defs><linearGradient id="bg" x1="0" y1="0" x2="1" y2="1"><stop stop-color="#080b0a"/><stop offset="1" stop-color="#1c211d"/></linearGradient><filter id="gl"><feGaussianBlur stdDeviation="5" result="b"/><feMerge><feMergeNode in="b"/><feMergeNode in="SourceGraphic"/></feMerge></filter></defs>
<rect width="1400" height="1000" fill="url(#bg)"/>
<g transform="translate(220 120)" fill="none" stroke-linejoin="round">
  <g stroke="#d8b258" stroke-width="3" opacity=".9"><path d="M80 690L430 800L960 615L610 510Z"/><path d="M80 690V250L610 80V510"/><path d="M610 80L960 200V615"/><path d="M80 250L430 360L960 200"/><path d="M430 360V800"/><path d="M245 305V745M610 80V510M780 140V675M80 470L430 580L960 395"/></g>
  <g stroke="#57b29b" stroke-width="10" opacity=".72" filter="url(#gl)"><path d="M165 520C300 450 460 470 600 390S830 290 900 310"/><path d="M220 620V420H780V260"/><path d="M310 300h360v260h180"/></g>
  <g stroke="#8d9df2" stroke-width="7" opacity=".7"><path d="M130 410h240v-80h350v170h170"/><path d="M260 680v-190h530v-140"/></g>
  <g stroke="#e78d62" stroke-width="6" opacity=".74"><path d="M150 580h220v-150h160v240h300"/><circle cx="530" cy="430" r="22"/><circle cx="370" cy="580" r="18"/></g>
</g>
<g font-family="Arial, sans-serif" fill="#eee7d9"><text x="90" y="105" font-size="20" letter-spacing="5">BADR ATELIER / DIGITAL DELIVERY</text><text x="90" y="900" font-size="58" font-weight="700">COORDINATED BY DESIGN</text><text x="90" y="945" font-size="18" letter-spacing="3" fill="#d8b258">ARCHITECTURE • STRUCTURE • MEP • LANDSCAPE</text></g>
</svg>
