<svg xmlns="http://www.w3.org/2000/svg" viewBox="0 0 1800 1000">
<defs>
 <linearGradient id="bg" x1="0" y1="0" x2="1" y2="1"><stop stop-color="#0a0a09"/><stop offset="1" stop-color="#17140f"/></linearGradient>
 <linearGradient id="gold" x1="0" y1="0" x2="1" y2="0"><stop stop-color="#8c6a2a"/><stop offset=".5" stop-color="#e0bd6b"/><stop offset="1" stop-color="#9a7430"/></linearGradient>
 <filter id="glow"><feGaussianBlur stdDeviation="8" result="b"/><feMerge><feMergeNode in="b"/><feMergeNode in="SourceGraphic"/></feMerge></filter>
</defs>
<rect width="1800" height="1000" fill="url(#bg)"/>
<g opacity=".18" stroke="#d7b35e" fill="none">
 <path d="M0 180H1800M0 360H1800M0 540H1800M0 720H1800M0 900H1800"/>
 <path d="M180 0V1000M360 0V1000M540 0V1000M720 0V1000M900 0V1000M1080 0V1000M1260 0V1000M1440 0V1000M1620 0V1000"/>
</g>
<!-- heritage street left -->
<g transform="translate(120 210)">
 <g fill="#15120d" stroke="#8a6b33" stroke-width="4">
  <path d="M0 470V130h210V470H0Z"/><path d="M220 470V80h220v390H220Z"/><path d="M450 470V170h190v300H450Z"/>
 </g>
 <g fill="#c8aa67" opacity=".8">
  <rect x="38" y="175" width="48" height="78" rx="18"/><rect x="120" y="175" width="48" height="78" rx="18"/>
  <rect x="275" y="132" width="52" height="100" rx="20"/><rect x="350" y="132" width="52" height="100" rx="20"/>
  <rect x="492" y="220" width="42" height="72" rx="16"/><rect x="558" y="220" width="42" height="72" rx="16"/>
 </g>
 <path d="M-30 470H690" stroke="#d7b35e" stroke-width="7"/>
 <path d="M70 470v100M320 470v100M540 470v100" stroke="#d7b35e" stroke-width="3" opacity=".7"/>
</g>
<!-- transition -->
<g transform="translate(780 420)" filter="url(#glow)">
 <circle cx="0" cy="0" r="74" fill="none" stroke="url(#gold)" stroke-width="5"/>
 <path d="M-30 0H35M15-20l22 20-22 20" stroke="#e0bd6b" stroke-width="6" fill="none" stroke-linecap="round" stroke-linejoin="round"/>
</g>
<!-- regenerated mixed-use right -->
<g transform="translate(920 160)">
 <g fill="#19150e" stroke="#c49a46" stroke-width="4">
  <path d="M0 560V180h230V560Z"/><path d="M240 560V80h280V560Z"/><path d="M530 560V150h230V560Z"/>
 </g>
 <g fill="#2e2414" stroke="#e0bd6b" stroke-width="3">
  <rect x="28" y="260" width="174" height="190" rx="6"/><rect x="285" y="175" width="190" height="235" rx="6"/><rect x="560" y="235" width="172" height="215" rx="6"/>
 </g>
 <g fill="#e4c276" opacity=".95">
  <rect x="52" y="290" width="46" height="90"/><rect x="128" y="290" width="46" height="90"/>
  <rect x="317" y="210" width="48" height="100"/><rect x="395" y="210" width="48" height="100"/>
  <rect x="590" y="270" width="44" height="90"/><rect x="660" y="270" width="44" height="90"/>
 </g>
 <path d="M-40 560H810" stroke="#e0bd6b" stroke-width="8"/>
 <g fill="#6f8e53"><circle cx="75" cy="545" r="42"/><circle cx="400" cy="540" r="58"/><circle cx="680" cy="545" r="45"/></g>
 <g stroke="#6f8e53" stroke-width="10"><path d="M75 545v-80M400 540v-120M680 545v-90"/></g>
</g>
<g fill="#e9d7a5" font-family="Arial, sans-serif" text-anchor="middle">
 <text x="390" y="860" font-size="34" letter-spacing="8">HERITAGE FABRIC</text>
 <text x="1350" y="860" font-size="34" letter-spacing="8">URBAN VALUE</text>
</g>
<path d="M110 910 C540 850 1260 850 1690 910" fill="none" stroke="url(#gold)" stroke-width="4" opacity=".75"/>
</svg>